<?xml version="1.0" encoding="UTF-8" standalone="no"?>
<!-- Created with Inkscape (http://www.inkscape.org/) -->

<svg
   width="55.608772mm"
   height="100.37132mm"
   viewBox="0 0 55.608772 100.37132"
   version="1.1"
   id="svg356"
   inkscape:version="1.2.1 (9c6d41e410, 2022-07-14)"
   sodipodi:docname="drink.svg"
   xmlns:inkscape="http://www.inkscape.org/namespaces/inkscape"
   xmlns:sodipodi="http://sodipodi.sourceforge.net/DTD/sodipodi-0.dtd"
   xmlns="http://www.w3.org/2000/svg"
   xmlns:svg="http://www.w3.org/2000/svg">
  <sodipodi:namedview
     id="namedview358"
     pagecolor="#ffffff"
     bordercolor="#000000"
     borderopacity="0.25"
     inkscape:showpageshadow="2"
     inkscape:pageopacity="0.0"
     inkscape:pagecheckerboard="0"
     inkscape:deskcolor="#d1d1d1"
     inkscape:document-units="mm"
     showgrid="false"
     inkscape:zoom="0.2102413"
     inkscape:cx="16.647538"
     inkscape:cy="95.128787"
     inkscape:window-width="1920"
     inkscape:window-height="986"
     inkscape:window-x="-11"
     inkscape:window-y="1609"
     inkscape:window-maximized="1"
     inkscape:current-layer="layer1" />
  <defs
     id="defs353" />
  <g
     inkscape:label="Layer 1"
     inkscape:groupmode="layer"
     id="layer1"
     transform="translate(-70.356628,-123.48384)">
    <path
       style="fill:#000000;stroke-width:0.0846667"
       d="m 103.91946,153.6924 c -0.27406,-0.21558 -0.47539,-0.58715 -0.47539,-0.8774 0,-0.20276 0.39692,-1.58314 2.32619,-8.08979 0.43493,-1.46685 1.02109,-3.44805 1.30257,-4.40266 0.28148,-0.95462 0.92961,-3.14537 1.44028,-4.86834 0.51068,-1.72296 1.17602,-3.97086 1.47854,-4.99533 0.30252,-1.02447 0.84259,-2.85327 1.20014,-4.064 0.35755,-1.21073 0.71154,-2.30549 0.78663,-2.43279 0.29983,-0.50829 0.0781,-0.49354 7.0458,-0.46863 l 6.36158,0.0228 0.28979,0.31625 c 0.25124,0.27417 0.28981,0.3741 0.28981,0.7508 0,0.39187 -0.0323,0.4668 -0.32871,0.76324 l -0.3287,0.32871 h -5.79211 -5.79209 l -1.13041,3.83116 c -1.36061,4.6114 -2.29742,7.78207 -3.22077,10.90084 -0.37914,1.28058 -0.8811,2.97603 -1.11547,3.76766 -0.90455,3.05527 -1.52153,5.15205 -2.05533,6.985 -0.61967,2.12783 -0.71724,2.36379 -1.06144,2.56711 -0.34175,0.20188 -0.94191,0.18487 -1.22091,-0.0346 z"
       id="path303" />
    <path
       style="fill:#000000;stroke-width:0.0846667"
       d="m 105.10821,170.59943 c -0.44138,-0.16422 -0.71702,-0.43554 -0.95486,-0.93989 -0.23931,-0.50748 -0.25288,-0.98081 -0.0413,-1.43933 0.19819,-0.4294 0.45388,-0.66368 0.97684,-0.895 0.79975,-0.35377 1.67269,-0.05 2.13798,0.74391 0.48636,0.82991 0.25201,1.82147 -0.55704,2.35687 -0.40842,0.27028 -1.09611,0.34666 -1.56166,0.17344 z"
       id="path293" />
    <path
       style="fill:#000000;stroke-width:0.0846667"
       d="m 108.17567,177.8824 c -0.75664,-0.27039 -1.19393,-0.88521 -1.20563,-1.69507 -0.0161,-1.11638 1.20777,-2.01124 2.27092,-1.66037 1.3216,0.43617 1.64812,2.15869 0.57673,3.04246 -0.5053,0.41683 -1.05713,0.522 -1.64202,0.31298 z"
       id="path291" />
    <path
       style="fill:#000000;stroke-width:0.0846667"
       d="m 100.4384,179.15693 c -0.624917,-0.24453 -0.988459,-0.66997 -1.134443,-1.3276 -0.353947,-1.59446 1.612083,-2.74883 2.842183,-1.66879 0.76858,0.67482 0.83616,1.858 0.14561,2.54928 -0.49687,0.49742 -1.25649,0.68067 -1.85335,0.44711 z"
       id="path289" />
    <path
       style="fill:#000000;stroke-width:0.0846667"
       d="m 91.633067,218.91957 c -2.785658,-0.14413 -6.138476,-0.55075 -9.038164,-1.09613 -1.034807,-0.19463 -1.164167,-0.23778 -1.164167,-0.38831 0,-0.18292 -2.633736,-26.14492 -2.836788,-27.96359 -0.06759,-0.60536 -0.235474,-2.09126 -0.373079,-3.302 -0.382926,-3.36924 -0.457202,-4.68896 -0.406249,-7.21822 0.07618,-3.78158 0.584957,-6.18389 1.883463,-8.89322 2.153235,-4.49271 5.597676,-7.23 10.36865,-8.23993 1.209292,-0.25599 3.35797,-0.27771 4.360334,-0.0441 2.324293,0.54171 4.053334,1.91476 4.818673,3.82654 0.56093,1.40118 0.473533,3.00059 -0.163957,3.00059 -0.2106,0 -0.250899,-0.0339 -0.722892,-0.60809 -0.140946,-0.17145 -0.428413,-0.39508 -0.638815,-0.49693 -0.532077,-0.25757 -1.614852,-0.20763 -2.391709,0.1103 -1.491099,0.61026 -2.920812,1.79922 -3.507171,2.91661 -0.83993,1.60061 -0.881467,3.74624 -0.107262,5.54054 0.34658,0.80324 0.660186,1.26377 1.26783,1.8618 2.647442,2.60555 8.813316,3.12549 17.951806,1.5138 0.84419,-0.14888 1.46704,-0.22202 1.51155,-0.17751 0.0417,0.0416 0.0581,0.26039 0.0367,0.48611 -0.0215,0.2257 -0.59697,6.01107 -1.27886,12.85637 -0.68189,6.8453 -1.515,15.23889 -1.85136,18.65244 -0.33634,3.41355 -0.63389,6.24262 -0.6612,6.28682 -0.11141,0.18026 -4.43077,0.87686 -7.02429,1.13283 -2.319814,0.22895 -4.045027,0.30114 -6.81567,0.28517 -1.490133,-0.009 -2.937933,-0.0275 -3.217333,-0.0419 z"
       id="path287" />
    <path
       style="fill:#000000;stroke-width:0.0846667"
       d="m 91.9294,223.83806 c -4.879123,-0.19608 -9.5012,-0.66375 -13.706218,-1.38681 -0.946539,-0.16276 -1.191345,-0.27127 -1.371499,-0.60789 -0.04182,-0.0781 -0.22973,-1.69782 -0.417576,-3.59929 -0.187844,-1.90146 -0.529903,-5.3622 -0.76013,-7.69053 -0.230224,-2.32833 -1.240652,-12.55818 -2.245397,-22.733 -1.004742,-10.17481 -1.975831,-20.00461 -2.157976,-21.844 -0.929264,-9.38418 -0.967031,-9.81241 -0.885555,-10.04122 0.04474,-0.12566 0.18892,-0.30857 0.320392,-0.40646 l 0.23904,-0.17798 24.040796,-0.0216 c 26.539833,-0.0238 24.489993,-0.0663 24.766373,0.51326 0.12945,0.27144 0.12428,0.42752 -0.0836,2.52351 -0.19746,1.99103 -0.44882,4.53542 -1.52975,15.4845 -0.16321,1.65312 -0.44913,4.54872 -0.63539,6.43467 -0.67995,6.88485 -1.0443,10.58078 -2.5415,25.781 -1.05786,10.73979 -1.56491,15.57871 -1.65248,15.77009 -0.0735,0.16066 -0.24178,0.32852 -0.40243,0.40148 -0.78553,0.35673 -7.77949,1.21148 -12.12943,1.48237 -1.453621,0.0905 -7.518054,0.17133 -8.84767,0.11791 z m 8.763,-1.98025 c 1.92915,-0.11883 4.85912,-0.38621 6.51933,-0.59493 1.99075,-0.25027 4.30893,-0.60361 4.37956,-0.66754 0.0339,-0.0306 0.23292,-1.78823 0.44237,-3.90575 0.20945,-2.11753 0.66846,-6.7647 1.02003,-10.32705 0.35156,-3.56235 0.80879,-8.1915 1.01606,-10.287 0.20727,-2.0955 0.53019,-5.36257 0.71758,-7.26016 0.4791,-4.85124 1.32999,-13.46658 2.03407,-20.59517 0.18857,-1.90923 0.49345,-5.01438 0.67752,-6.90033 0.18406,-1.88595 0.3569,-3.59093 0.38409,-3.78884 l 0.0494,-0.35983 H 95.109589 c -12.552569,0 -22.822816,0.0286 -22.822765,0.0635 7.6e-5,0.0572 1.198776,12.22175 2.53838,25.75983 0.480907,4.86005 1.055209,10.67408 1.609929,16.29833 0.137787,1.397 0.442259,4.4831 0.676603,6.858 0.234347,2.3749 0.598715,6.0706 0.809707,8.21267 0.581401,5.90259 0.608754,6.15072 0.685895,6.22227 0.07912,0.0734 2.30464,0.41915 4.347398,0.67544 2.557658,0.32088 5.937729,0.58726 9.059331,0.71394 1.303851,0.0529 7.210761,-0.027 8.678333,-0.11738 z"
       id="path285" />
  </g>
</svg>
