<?xml version="1.0" encoding="UTF-8" standalone="no"?>
<!-- Created with Inkscape (http://www.inkscape.org/) -->

<svg
   width="100.36736mm"
   height="98.525879mm"
   viewBox="0 0 100.36736 98.525879"
   version="1.1"
   id="svg586"
   inkscape:version="1.2.1 (9c6d41e410, 2022-07-14)"
   sodipodi:docname="noodle.svg"
   xmlns:inkscape="http://www.inkscape.org/namespaces/inkscape"
   xmlns:sodipodi="http://sodipodi.sourceforge.net/DTD/sodipodi-0.dtd"
   xmlns="http://www.w3.org/2000/svg"
   xmlns:svg="http://www.w3.org/2000/svg">
  <sodipodi:namedview
     id="namedview588"
     pagecolor="#ffffff"
     bordercolor="#000000"
     borderopacity="0.25"
     inkscape:showpageshadow="2"
     inkscape:pageopacity="0.0"
     inkscape:pagecheckerboard="0"
     inkscape:deskcolor="#d1d1d1"
     inkscape:document-units="mm"
     showgrid="false"
     inkscape:zoom="0.2102413"
     inkscape:cx="49.942613"
     inkscape:cy="166.47538"
     inkscape:window-width="1920"
     inkscape:window-height="986"
     inkscape:window-x="-11"
     inkscape:window-y="1609"
     inkscape:window-maximized="1"
     inkscape:current-layer="layer1" />
  <defs
     id="defs583" />
  <g
     inkscape:label="Layer 1"
     inkscape:groupmode="layer"
     id="layer1"
     transform="translate(-61.820316,-104.27094)">
    <path
       style="fill:#000000;stroke-width:0.0846667"
       d="m 75.971919,202.69037 c -3.42963,-0.46838 -6.58419,-2.00554 -9.10197,-4.43522 -2.9123,-2.81039 -4.61111,-6.40339 -4.96437,-10.49968 -0.11822,-1.37091 -0.11159,-7.68897 0.008,-8.03327 0.19101,-0.54794 -0.40336,-0.51806 10.30657,-0.51806 h 9.7315 l 0.052,-1.8415 c 0.13726,-4.86219 0.48464,-11.75692 0.73263,-14.5415 0.45665,-5.12741 1.51398,-8.47543 3.53086,-11.18034 1.38689,-1.86002 3.30956,-3.32532 5.18592,-3.9523 0.75602,-0.25261 0.87807,-0.26874 2.032,-0.26858 1.1394,0 1.27333,0.0173 1.86267,0.23868 1.82892,0.68694 3.38225,2.43545 4.27447,4.81156 l 0.15084,0.40168 0.815521,-0.78268 c 1.39824,-1.34193 2.77892,-2.29313 4.10396,-2.82735 l 0.68821,-0.27747 0.0152,-2.02144 c 0.008,-1.11178 0.0572,-2.54707 0.10852,-3.18952 0.0513,-0.64245 0.0789,-1.18243 0.0614,-1.19997 -0.0175,-0.0175 -0.58073,0.16282 -1.25153,0.40079 -0.6708,0.23796 -1.63873,0.57714 -2.15096,0.75374 -0.51224,0.17658 -1.42168,0.49667 -2.02099,0.7113 -1.192961,0.42723 -1.644081,0.47798 -2.049791,0.23058 -0.27435,-0.1673 -0.54356,-0.63055 -0.54356,-0.93536 0,-0.26155 0.2029,-0.70062 0.40832,-0.88359 0.0977,-0.0871 0.91262,-0.41724 1.81086,-0.73374 0.898231,-0.3165 2.637581,-0.92919 3.865211,-1.36153 1.75835,-0.61925 2.24567,-0.8229 2.29624,-0.9596 0.11315,-0.30586 0.94462,-4.63484 0.89898,-4.68048 -0.0242,-0.0242 -0.62655,0.30047 -1.33861,0.72143 -0.71206,0.42096 -2.4919,1.47349 -3.95519,2.33895 -2.898961,1.71459 -3.033041,1.7667 -3.621871,1.40767 -0.5417,-0.3303 -0.69132,-1.12895 -0.30963,-1.65292 0.0942,-0.12931 2.19766,-1.42441 5.069841,-3.12148 l 4.90885,-2.90048 0.10966,-0.37644 c 1.36366,-4.68128 2.97576,-7.10504 5.59943,-8.41863 1.69075,-0.84652 3.69635,-0.94183 4.91534,-0.23362 0.50331,0.29242 1.129,0.88543 1.41831,1.34424 0.14879,0.23595 0.27741,0.35443 0.35341,0.32553 0.0657,-0.025 3.89477,-2.27977 8.509,-5.01059 20.33675,-12.03582 25.35699,-15.00245 25.60278,-15.12955 0.55482,-0.28691 1.28258,-0.11281 1.57126,0.37588 0.18524,0.3136 0.17605,0.9084 -0.0189,1.2243 -0.11565,0.18739 -1.13143,0.8304 -3.87318,2.45183 -4.35356,2.57462 -9.01331,5.33072 -15.82375,9.35926 -2.70086,1.59763 -7.19666,4.25582 -9.99066,5.9071 -2.794,1.65128 -5.12336,3.03717 -5.17635,3.07973 -0.066,0.053 -0.073,0.17679 -0.0223,0.39241 0.20545,0.87437 0.35353,2.64411 0.40302,4.81658 0.0299,1.31169 0.0819,2.41238 0.11552,2.44597 0.0508,0.0507 2.19981,-0.67865 6.41581,-2.17761 1.26887,-0.45113 2.02588,-0.71826 4.36033,-1.53867 7.20496,-2.53207 8.44402,-2.96833 9.05933,-3.18972 0.6018,-0.21653 4.41491,-1.55943 12.02267,-4.23415 1.35043,-0.47477 3.63303,-1.27825 5.07243,-1.78548 1.43941,-0.50724 2.72717,-0.92225 2.86171,-0.92225 0.72099,0 1.27296,0.73327 1.08302,1.4387 -0.14478,0.53765 -0.42188,0.70171 -2.28616,1.35349 -0.95462,0.33376 -2.04047,0.71605 -2.413,0.84953 -0.37253,0.1335 -2.04893,0.72397 -3.72533,1.31217 -1.6764,0.5882 -3.3528,1.1789 -3.72534,1.31266 -0.37253,0.13376 -2.37278,0.83904 -4.445,1.56729 -2.07221,0.72825 -5.12021,1.80071 -6.77333,2.38323 -1.65312,0.58253 -5.32977,1.87761 -8.17033,2.87795 -2.84057,1.00034 -6.06002,2.13455 -7.15434,2.52048 l -1.98966,0.7017 -0.0528,0.79774 c -0.029,0.43875 -0.078,0.91251 -0.10876,1.05277 -0.0308,0.14027 0.002,0.61524 0.072,1.0555 0.26996,1.68843 0.31552,3.38596 0.38505,14.34712 0.0427,6.73476 0.12119,12.57124 0.19979,14.859 0.0712,2.07222 0.15181,4.85352 0.17916,6.18067 0.0274,1.32715 0.0713,2.76494 0.0976,3.1951 l 0.0479,0.78212 9.69385,0.0222 9.69385,0.0222 0.20432,0.23756 0.20433,0.23755 v 3.75397 c 0,2.06469 -0.0399,4.14854 -0.0887,4.63078 -0.37427,3.6998 -1.92659,7.04285 -4.54065,9.77869 -1.99046,2.08316 -4.75175,3.69012 -7.611,4.42925 -1.92078,0.49655 0.3431,0.45726 -27.51065,0.47739 -21.568211,0.0156 -25.619381,2e-5 -26.361241,-0.1013 z m 44.318331,-25.83573 c -0.0324,-1.29223 -0.13902,-4.80695 -0.23685,-7.8105 -0.14073,-4.32053 -0.18127,-7.37947 -0.19416,-14.64733 -0.0149,-8.43381 -0.0539,-11.14992 -0.17683,-12.33374 l -0.0455,-0.43806 -0.37137,0.25063 c -0.62575,0.42232 -1.25878,0.60509 -2.12599,0.61385 -0.74432,0.008 -0.79834,-0.005 -1.49299,-0.34933 -0.80134,-0.39708 -1.42165,-0.98632 -1.96492,-1.8665 l -0.30645,-0.49647 -2.87349,1.01354 -2.87349,1.01354 -0.0449,0.26378 c -0.12827,0.75288 -0.22312,2.2788 -0.26992,4.34274 l -0.0522,2.30099 0.32999,0.0536 c 1.13199,0.18392 1.64288,0.37299 2.4034,0.88946 1.71657,1.1657 3.01633,3.39946 3.65625,6.28367 0.26305,1.18551 0.28139,3.45654 0.0347,4.30028 -0.32169,1.10048 -0.82394,1.85525 -1.50243,2.25785 -1.53611,0.91149 -3.57343,0.26935 -4.84845,-1.52818 -1.35702,-1.91316 -1.91095,-4.30298 -1.91112,-8.24506 l -7e-5,-1.71572 -0.52917,0.26681 c -1.13796,0.57376 -2.3874,1.54244 -3.44952,2.67439 -0.38407,0.40933 -0.73529,0.82411 -0.78048,0.92174 -0.0633,0.13663 0.0184,0.48751 0.35445,1.524 1.24038,3.82524 2.09511,7.61185 2.37754,10.53283 0.25466,2.63374 -0.20116,4.95046 -1.17148,5.95414 -0.52773,0.54586 -1.0546,0.77224 -1.80306,0.77473 -0.589741,0.002 -0.701911,-0.0279 -1.393131,-0.37038 -0.60321,-0.29889 -0.89635,-0.51637 -1.48365,-1.10066 -1.1333,-1.1275 -1.71637,-2.27248 -2.12552,-4.1739 -0.25135,-1.16809 -0.26976,-3.81978 -0.0372,-5.35959 0.40716,-2.69582 1.32682,-5.26609 2.63556,-7.36588 l 0.40029,-0.64224 -0.42954,-1.07595 c -0.64724,-1.62124 -1.06167,-2.33122 -1.79376,-3.07291 -0.71427,-0.72363 -1.25528,-1.02404 -2.13677,-1.18646 -1.57226,-0.2897 -3.5983,0.64933 -5.3702,2.48898 -1.35022,1.40185 -2.2035,2.85513 -2.89333,4.92779 -0.77858,2.33936 -1.06639,4.38476 -1.407,9.99896 -0.30664,5.05434 -0.38153,6.70556 -0.4422,9.74954 l -0.0544,2.7305 h 18.229171 18.22916 z m -19.40615,-5.35905 c 0.41162,-0.48917 0.57999,-1.24333 0.62291,-2.79012 0.0433,-1.55901 -0.0451,-2.38451 -0.53063,-4.95444 -0.41456,-2.1945 -1.511731,-6.35022 -1.741681,-6.59687 -0.17295,-0.18552 -1.25696,2.53479 -1.64385,4.12525 -0.53641,2.20508 -0.61684,5.20598 -0.18369,6.8536 0.38911,1.4801 1.14435,2.60741 2.20863,3.29667 0.633741,0.41043 0.963981,0.42759 1.268311,0.0659 z m 10.40095,-10.74014 c 0.92522,-0.81236 0.92862,-3.6314 0.007,-6.10098 -0.82393,-2.20865 -2.23155,-3.73332 -3.64641,-3.94963 l -0.35983,-0.055 v 1.42899 c 0,1.68195 0.11937,3.43655 0.29964,4.41328 0.39364,2.13283 1.28288,3.76196 2.34134,4.28941 0.59413,0.29607 0.99969,0.28828 1.3577,-0.0261 z m 6.5448,-20.28197 c 0.65826,-0.27504 1.39431,-1.07061 1.39431,-1.50706 0,-0.35678 -0.25411,-1.07961 -0.37953,-1.07961 -0.10356,0 -3.50166,1.175 -3.59121,1.24177 -0.0633,0.0472 0.44168,0.71167 0.73955,0.9732 0.55833,0.49022 1.2286,0.62585 1.83688,0.3717 z m -7.28402,-2.14895 2.11667,-0.75379 0.0558,-0.54047 c 0.10558,-1.02233 0.47177,-1.81721 1.14119,-2.47717 1.25658,-1.23883 3.37531,-1.2909 4.92104,-0.12094 l 0.55584,0.42071 -0.0559,-2.35653 c -0.0466,-1.96298 -0.23258,-4.46603 -0.33987,-4.57332 -0.0643,-0.0643 -9.75503,5.74027 -9.81118,5.87672 -0.0739,0.17956 -1.08126,5.0715 -1.08126,5.25067 0,0.16429 -0.0108,0.16743 2.49767,-0.72588 z m 5.57833,-1.96172 c 0.72646,-0.25612 1.3211,-0.4901 1.32142,-0.51997 10e-4,-0.12467 -0.71468,-0.3267 -1.15786,-0.3267 -0.64699,0 -1.10068,0.26783 -1.40698,0.83062 -0.24225,0.44509 -0.27542,0.55565 -0.15299,0.50993 0.0416,-0.0155 0.66996,-0.23776 1.39641,-0.49388 z m 0.306,-9.6892 c 2.01286,-1.18877 1.81054,-1.02406 1.63245,-1.32902 -0.42271,-0.72387 -1.32293,-1.15799 -2.16613,-1.04459 -2.33983,0.31467 -4.13292,1.93704 -5.37824,4.86614 -0.61527,1.44719 -0.78544,1.46388 2.02931,-0.19903 1.36709,-0.80764 3.11426,-1.83972 3.88261,-2.2935 z"
       id="path297" />
  </g>
</svg>
